<svg width="375" height="219" viewBox="0 0 375 219" fill="none" xmlns="http://www.w3.org/2000/svg">
<path d="M305.556 410.7C307.015 412.158 309.382 412.16 310.82 410.68C345.866 374.593 369.182 328.724 377.652 279.096C386.331 228.24 378.992 175.946 356.648 129.437C334.304 82.9288 298.059 44.5015 252.919 19.4637C207.779 -5.57413 155.972 -15.9867 104.654 -10.3357C53.3371 -4.68462 5.04238 16.7512 -33.5584 51.0105C-72.1592 85.2699 -99.1609 130.662 -110.833 180.916C-122.506 231.171 -118.273 283.807 -98.7204 331.554C-79.6392 378.149 -46.887 417.843 -4.81705 445.438C-3.09223 446.569 -0.782139 446.052 0.324407 444.312V444.312C1.43199 442.569 0.91427 440.261 -0.811615 439.128C-41.5725 412.363 -73.3061 373.885 -91.8001 328.724C-110.767 282.41 -114.872 231.352 -103.55 182.606C-92.2274 133.859 -66.0357 89.8286 -28.593 56.597C8.84978 23.3654 55.6957 2.57272 105.473 -2.9088C155.251 -8.39032 205.504 1.70989 249.29 25.9966C293.076 50.2833 328.234 87.5578 349.907 132.671C371.581 177.784 378.7 228.51 370.281 277.84C362.072 325.941 339.485 370.4 305.535 405.392C304.097 406.874 304.095 409.24 305.556 410.7V410.7Z" fill="#EEF2F8"/>
<path d="M312.045 403.203C313.382 404.543 315.557 404.544 316.874 403.184C355.444 363.33 378.244 310.716 380.931 255.169C383.674 198.478 365.27 142.793 329.306 98.9624C293.341 55.132 242.391 26.2955 186.381 18.0707C130.371 9.84583 73.3137 22.8218 26.3239 54.4706C-20.666 86.1194 -54.2225 134.174 -67.8085 189.273C-81.3944 244.373 -74.0367 302.57 -47.1688 352.527C-20.3008 402.485 24.1531 440.624 77.5326 459.516C129.837 478.027 187.04 476.758 238.423 456.024C240.175 455.317 240.994 453.31 240.265 451.567V451.567C239.533 449.82 237.522 449.002 235.765 449.71C185.95 469.78 130.506 470.996 79.8076 453.053C28.0295 434.728 -15.0908 397.733 -41.1527 349.274C-67.2147 300.816 -74.3516 244.364 -61.1733 190.918C-47.9949 137.472 -15.445 90.8588 30.1351 60.1595C75.7152 29.4601 131.061 16.8735 185.39 24.8515C239.72 32.8296 289.142 60.801 324.027 103.317C358.913 145.832 376.765 199.847 374.104 254.837C371.499 308.689 349.405 359.7 312.027 398.35C310.716 399.706 310.713 401.867 312.045 403.203V403.203Z" fill="#EEF2F8"/>
<path d="M316.349 392.515C317.598 393.76 319.622 393.762 320.853 392.497C351.484 361.028 371.65 320.877 378.555 277.514C385.627 233.101 378.426 187.596 357.982 147.512C337.539 107.429 304.901 74.8219 264.74 54.3598C224.58 33.8978 178.957 26.6295 134.401 33.5956C89.8461 40.5617 48.6434 61.4048 16.6915 93.1414C-15.2603 124.878 -36.323 165.881 -43.4814 210.28C-50.6399 254.679 -43.5269 300.198 -23.1609 340.321C-3.27584 379.496 28.2483 411.566 67.0709 432.178C68.6283 433.004 70.554 432.384 71.3612 430.816V430.816C72.1711 429.243 71.5483 427.314 69.9861 426.483C32.373 406.489 1.83085 375.402 -17.441 337.434C-37.196 298.515 -44.0955 254.362 -37.1519 211.294C-30.2082 168.227 -9.77737 128.455 21.2159 97.6701C52.2092 66.8857 92.1758 46.6678 135.394 39.9107C178.613 33.1537 222.868 40.2038 261.823 60.052C300.779 79.9002 332.438 111.529 352.268 150.41C372.099 189.291 379.084 233.431 372.223 276.512C365.531 318.536 345.999 357.45 316.332 387.964C315.097 389.234 315.095 391.264 316.349 392.515V392.515Z" fill="#EEF2F8"/>
<path d="M350.212 354.844C351.68 355.464 353.375 354.777 353.973 353.299C368.958 316.261 372.056 275.444 362.794 236.525C353.31 196.67 331.36 160.885 300.141 134.385C268.922 107.885 230.066 92.0534 189.231 89.196C149.356 86.4058 109.629 96.1297 75.5676 116.975C74.2085 117.807 73.8074 119.591 74.6582 120.938V120.938C75.5092 122.285 77.2904 122.684 78.6502 121.853C111.673 101.664 150.18 92.2486 188.829 94.953C228.439 97.7247 266.129 113.081 296.412 138.787C326.694 164.492 347.985 199.202 357.185 237.863C366.162 275.587 363.168 315.149 348.659 351.056C348.063 352.533 348.746 354.224 350.212 354.844V354.844Z" fill="#EEF2F8"/>
<path d="M52.0237 137.748C50.9822 136.542 49.1585 136.408 47.9688 137.469C34.5101 149.472 22.8053 163.309 13.1985 178.576C12.3502 179.924 12.7825 181.699 14.1417 182.528V182.528C15.5021 183.357 17.2756 182.924 18.1253 181.575C27.4199 166.821 38.7355 153.443 51.7416 141.834C52.9302 140.773 53.0647 138.953 52.0237 137.748V137.748Z" fill="#EEF2F8"/>
<path d="M334.613 374.806C335.977 375.383 337.553 374.744 338.109 373.37C347.792 349.436 352.187 323.677 350.978 297.863C349.727 271.154 342.509 245.066 329.854 221.518C317.2 197.97 299.432 177.561 277.858 161.793C257.006 146.553 233.11 136.024 207.822 130.917C206.37 130.623 204.968 131.587 204.697 133.044V133.044C204.426 134.5 205.387 135.898 206.837 136.192C231.339 141.151 254.491 151.359 274.696 166.127C295.624 181.421 312.859 201.218 325.133 224.06C337.408 246.901 344.409 272.207 345.623 298.114C346.794 323.128 342.542 348.089 333.169 371.285C332.614 372.658 333.25 374.23 334.613 374.806V374.806Z" fill="#EEF2F8"/>
<path d="M306.619 411.438C308.084 413.126 310.642 413.309 312.307 411.818C344.303 383.149 369.008 347.229 384.341 307.038C400.155 265.586 405.512 220.869 399.935 176.85C394.359 132.831 378.023 90.8672 352.373 54.6766C326.723 18.486 292.552 -10.8147 252.886 -30.6299C213.22 -50.4452 169.284 -60.1634 124.969 -58.9238C80.6541 -57.6842 37.3286 -45.525 -1.16971 -23.5233C-39.668 -1.52156 -72.151 29.6436 -95.7412 67.2116C-118.614 103.637 -132.442 144.992 -136.098 187.82C-136.288 190.046 -134.605 191.98 -132.377 192.137V192.137C-130.15 192.294 -128.221 190.615 -128.03 188.39C-124.469 146.89 -111.06 106.818 -88.8939 71.5189C-66.0114 35.0779 -34.503 4.84772 2.84039 -16.494C40.1838 -37.8356 82.2094 -49.6301 125.195 -50.8325C168.18 -52.0349 210.798 -42.6082 249.274 -23.3874C287.75 -4.16662 320.897 24.255 345.777 59.3599C370.657 94.4648 386.504 135.169 391.912 177.868C397.321 220.567 392.126 263.942 376.786 304.15C361.926 343.1 337.993 377.914 306.998 405.71C305.337 407.2 305.155 409.751 306.619 411.438V411.438Z" fill="#EEF2F8"/>
<path d="M314.199 404.603C315.581 405.741 317.627 405.542 318.743 404.141C337.197 380.978 350.705 354.256 358.415 325.629C366.406 295.957 367.985 264.92 363.046 234.589C358.107 204.258 346.764 175.33 329.773 149.733C312.782 124.136 290.534 102.46 264.512 86.1485C238.49 69.8374 209.292 59.2668 178.866 55.1415C148.44 51.0163 117.485 53.4313 88.0657 62.2255C58.646 71.0197 31.4376 85.991 8.25519 106.141C-14.112 125.582 -32.2355 149.413 -44.9997 176.145C-45.771 177.76 -45.0572 179.685 -43.4322 180.432V180.432C-41.8057 181.181 -39.8826 180.466 -39.1098 178.85C-26.7309 152.957 -9.16693 129.873 12.5037 111.038C34.9907 91.4922 61.3828 76.97 89.9199 68.4397C118.457 59.9093 148.483 57.5667 177.996 61.5682C207.51 65.5696 235.831 75.8232 261.072 91.645C286.314 107.467 307.895 128.493 324.376 153.322C340.857 178.151 351.86 206.211 356.651 235.632C361.442 265.054 359.91 295.159 352.159 323.941C344.688 351.679 331.606 377.573 313.736 400.024C312.621 401.425 312.817 403.466 314.199 404.603V404.603Z" fill="#EEF2F8"/>
</svg>
